<?xml version="1.0" encoding="UTF-8"?>
<svg xmlns="http://www.w3.org/2000/svg" width="640" height="400" viewBox="0 0 640 400" role="img" aria-labelledby="figure-title">
<title id="figure-title">curve-cardinal</title>
<defs>
<clipPath id="c1"><path d="M27.116,32.8 L621.884,32.8 L621.884,368.825 L27.116,368.825 Z"/></clipPath>
</defs>
<path d="M0,0 L640,0 L640,400 L0,400 Z" fill="#ffffff"/>
<polyline fill="none" points="27.116,32.8 27.116,368.825" stroke="#dddddd"/>
<polyline fill="none" points="146.07,32.8 146.07,368.825" stroke="#dddddd"/>
<polyline fill="none" points="265.023,32.8 265.023,368.825" stroke="#dddddd"/>
<polyline fill="none" points="383.977,32.8 383.977,368.825" stroke="#dddddd"/>
<polyline fill="none" points="502.93,32.8 502.93,368.825" stroke="#dddddd"/>
<polyline fill="none" points="621.884,32.8 621.884,368.825" stroke="#dddddd"/>
<polyline fill="none" points="27.116,368.825 621.884,368.825" stroke="#dddddd"/>
<polyline fill="none" points="27.116,301.62 621.884,301.62" stroke="#dddddd"/>
<polyline fill="none" points="27.116,234.415 621.884,234.415" stroke="#dddddd"/>
<polyline fill="none" points="27.116,167.21 621.884,167.21" stroke="#dddddd"/>
<polyline fill="none" points="27.116,100.005 621.884,100.005" stroke="#dddddd"/>
<polyline fill="none" points="27.116,32.8 621.884,32.8" stroke="#dddddd"/>
<polyline fill="none" points="27.116,368.825 621.884,368.825" stroke="#333333"/>
<polyline fill="none" points="27.116,32.8 27.116,368.825" stroke="#333333"/>
<polyline fill="none" points="27.116,368.825 27.116,373.825" stroke="#333333"/>
<text x="27.116" y="377.825" font-family="sans-serif" font-size="11" text-anchor="middle" dominant-baseline="hanging" fill="#555555">0</text>
<polyline fill="none" points="146.07,368.825 146.07,373.825" stroke="#333333"/>
<text x="146.07" y="377.825" font-family="sans-serif" font-size="11" text-anchor="middle" dominant-baseline="hanging" fill="#555555">2</text>
<polyline fill="none" points="265.023,368.825 265.023,373.825" stroke="#333333"/>
<text x="265.023" y="377.825" font-family="sans-serif" font-size="11" text-anchor="middle" dominant-baseline="hanging" fill="#555555">4</text>
<polyline fill="none" points="383.977,368.825 383.977,373.825" stroke="#333333"/>
<text x="383.977" y="377.825" font-family="sans-serif" font-size="11" text-anchor="middle" dominant-baseline="hanging" fill="#555555">6</text>
<polyline fill="none" points="502.93,368.825 502.93,373.825" stroke="#333333"/>
<text x="502.93" y="377.825" font-family="sans-serif" font-size="11" text-anchor="middle" dominant-baseline="hanging" fill="#555555">8</text>
<polyline fill="none" points="621.884,368.825 621.884,373.825" stroke="#333333"/>
<text x="621.884" y="377.825" font-family="sans-serif" font-size="11" text-anchor="middle" dominant-baseline="hanging" fill="#555555">10</text>
<polyline fill="none" points="22.116,368.825 27.116,368.825" stroke="#333333"/>
<text x="18.116" y="368.825" font-family="sans-serif" font-size="11" text-anchor="end" dominant-baseline="central" fill="#555555">0</text>
<polyline fill="none" points="22.116,301.62 27.116,301.62" stroke="#333333"/>
<text x="18.116" y="301.62" font-family="sans-serif" font-size="11" text-anchor="end" dominant-baseline="central" fill="#555555">1</text>
<polyline fill="none" points="22.116,234.415 27.116,234.415" stroke="#333333"/>
<text x="18.116" y="234.415" font-family="sans-serif" font-size="11" text-anchor="end" dominant-baseline="central" fill="#555555">2</text>
<polyline fill="none" points="22.116,167.21 27.116,167.21" stroke="#333333"/>
<text x="18.116" y="167.21" font-family="sans-serif" font-size="11" text-anchor="end" dominant-baseline="central" fill="#555555">3</text>
<polyline fill="none" points="22.116,100.005 27.116,100.005" stroke="#333333"/>
<text x="18.116" y="100.005" font-family="sans-serif" font-size="11" text-anchor="end" dominant-baseline="central" fill="#555555">4</text>
<polyline fill="none" points="22.116,32.8 27.116,32.8" stroke="#333333"/>
<text x="18.116" y="32.8" font-family="sans-serif" font-size="11" text-anchor="end" dominant-baseline="central" fill="#555555">5</text>
<text x="324.5" y="23.488" font-family="sans-serif" font-size="16" text-anchor="middle" fill="#1a1a1a">curve-cardinal</text>
<g clip-path="url(#c1)">
<path fill="none" d="M27.116,368.825 C37.029,368.825 66.767,368.825 86.593,368.825 C106.418,368.825 126.244,424.829 146.07,368.825 C165.895,312.821 185.721,88.804 205.546,32.8 C225.372,-23.204 245.198,32.8 265.023,32.8 C284.849,32.8 304.674,-12.003 324.5,32.8 C344.326,77.603 364.151,290.419 383.977,301.62 C403.802,312.821 423.628,133.607 443.454,100.005 C463.279,66.402 483.105,77.603 502.93,100.005 C522.756,122.407 552.494,212.013 562.407,234.415" stroke="#0072b2" stroke-width="1.75" stroke-linecap="round" stroke-linejoin="round"/>
</g>
</svg>