<?xml version="1.0" encoding="UTF-8"?><svg xmlns="http://www.w3.org/2000/svg" width="620" height="400" viewBox="0 0 620 400" role="img" aria-labelledby="figure-title"><title id="figure-title">One site, thirty times the rest</title><defs><clipPath id="c1"><path d="M56.448,32.8 L590.576,32.8 L590.576,216.147 L56.448,216.147 Z M56.448,222.147 L590.576,222.147 L590.576,368.825 L56.448,368.825 Z"/></clipPath></defs><path d="M0,0 L620,0 L620,400 L0,400 Z" fill="#ffffff"/><polyline fill="none" points="56.448,368.825 590.576,368.825" stroke="#dddddd"/><polyline fill="none" points="56.448,307.709 590.576,307.709" stroke="#dddddd"/><polyline fill="none" points="56.448,246.594 590.576,246.594" stroke="#dddddd"/><polyline fill="none" points="56.448,216.147 590.576,216.147" stroke="#dddddd"/><polyline fill="none" points="56.448,155.031 590.576,155.031" stroke="#dddddd"/><polyline fill="none" points="56.448,93.916 590.576,93.916" stroke="#dddddd"/><polyline fill="none" points="56.448,32.8 590.576,32.8" stroke="#dddddd"/><polyline fill="none" points="56.448,368.825 590.576,368.825" stroke="#333333"/><path fill="none" d="M56.448,32.8 L56.448,216.147 M56.448,222.147 L56.448,368.825" stroke="#333333"/><polyline fill="none" points="100.959,368.825 100.959,373.825" stroke="#333333"/><text x="100.959" y="377.825" font-family="sans-serif" font-size="11" text-anchor="middle" dominant-baseline="hanging" fill="#555555">Berlin</text><polyline fill="none" points="189.98,368.825 189.98,373.825" stroke="#333333"/><text x="189.98" y="377.825" font-family="sans-serif" font-size="11" text-anchor="middle" dominant-baseline="hanging" fill="#555555">Hamburg</text><polyline fill="none" points="279.001,368.825 279.001,373.825" stroke="#333333"/><text x="279.001" y="377.825" font-family="sans-serif" font-size="11" text-anchor="middle" dominant-baseline="hanging" fill="#555555">Köln</text><polyline fill="none" points="368.023,368.825 368.023,373.825" stroke="#333333"/><text x="368.023" y="377.825" font-family="sans-serif" font-size="11" text-anchor="middle" dominant-baseline="hanging" fill="#555555">Frankfurt</text><polyline fill="none" points="457.044,368.825 457.044,373.825" stroke="#333333"/><text x="457.044" y="377.825" font-family="sans-serif" font-size="11" text-anchor="middle" dominant-baseline="hanging" fill="#555555">München</text><polyline fill="none" points="546.065,368.825 546.065,373.825" stroke="#333333"/><text x="546.065" y="377.825" font-family="sans-serif" font-size="11" text-anchor="middle" dominant-baseline="hanging" fill="#555555">Leipzig</text><polyline fill="none" points="51.448,368.825 56.448,368.825" stroke="#333333"/><text x="47.448" y="368.825" font-family="sans-serif" font-size="11" text-anchor="end" dominant-baseline="central" fill="#555555">0</text><polyline fill="none" points="51.448,307.709 56.448,307.709" stroke="#333333"/><text x="47.448" y="307.709" font-family="sans-serif" font-size="11" text-anchor="end" dominant-baseline="central" fill="#555555">5</text><polyline fill="none" points="51.448,246.594 56.448,246.594" stroke="#333333"/><text x="47.448" y="246.594" font-family="sans-serif" font-size="11" text-anchor="end" dominant-baseline="central" fill="#555555">10</text><polyline fill="none" points="51.448,216.147 56.448,216.147" stroke="#333333"/><text x="47.448" y="216.147" font-family="sans-serif" font-size="11" text-anchor="end" dominant-baseline="central" fill="#555555">85</text><polyline fill="none" points="51.448,155.031 56.448,155.031" stroke="#333333"/><text x="47.448" y="155.031" font-family="sans-serif" font-size="11" text-anchor="end" dominant-baseline="central" fill="#555555">90</text><polyline fill="none" points="51.448,93.916 56.448,93.916" stroke="#333333"/><text x="47.448" y="93.916" font-family="sans-serif" font-size="11" text-anchor="end" dominant-baseline="central" fill="#555555">95</text><polyline fill="none" points="51.448,32.8 56.448,32.8" stroke="#333333"/><text x="47.448" y="32.8" font-family="sans-serif" font-size="11" text-anchor="end" dominant-baseline="central" fill="#555555">100</text><text x="323.512" y="23.488" font-family="sans-serif" font-size="16" text-anchor="middle" fill="#1a1a1a">One site, thirty times the rest</text><text x="20.616" y="200.812" font-family="sans-serif" font-size="12" text-anchor="middle" fill="#333333" transform="rotate(-90 20.616 200.812)">requests per second (thousands)</text><g clip-path="url(#c1)"><path d="M65.35,293.042 L136.567,293.042 L136.567,368.825 L65.35,368.825 Z M154.371,260.039 L225.589,260.039 L225.589,368.825 L154.371,368.825 Z M243.393,318.71 L314.61,318.71 L314.61,368.825 L243.393,368.825 Z M332.414,100.027 L403.631,100.027 L403.631,368.825 L332.414,368.825 Z M421.435,242.927 L492.653,242.927 L492.653,368.825 L421.435,368.825 Z M510.457,329.711 L581.674,329.711 L581.674,368.825 L510.457,368.825 Z" fill="#56b4e9"/></g><path fill="none" d="M52.448,218.547 L60.448,213.747 M52.448,224.547 L60.448,219.747" stroke="#333333"/></svg>