<?xml version="1.0" encoding="UTF-8"?><svg xmlns="http://www.w3.org/2000/svg" width="720" height="460" viewBox="0 0 720 460" role="img" aria-labelledby="figure-title"><title id="figure-title">A quarter of support tickets, and where the escalations come from</title><defs><clipPath id="c1"><path d="M12,32.8 L618.64,32.8 L618.64,448 L12,448 Z"/></clipPath></defs><path d="M0,0 L720,0 L720,460 L0,460 Z" fill="#ffffff"/><text x="315.32" y="23.488" font-family="sans-serif" font-size="16" text-anchor="middle" fill="#1a1a1a">A quarter of support tickets, and where the escalations come from</text><g clip-path="url(#c1)"><path d="M36.266,448 C169.726,448 169.726,439.696 303.187,439.696 L303.187,346.691 C169.726,346.691 169.726,354.995 36.266,354.995 L36.266,448 Z" fill="#0072b2" fill-opacity="0.55"/><path d="M36.266,354.995 C169.726,354.995 169.726,346.691 303.187,346.691 L303.187,338.719 C169.726,338.719 169.726,347.023 36.266,347.023 L36.266,354.995 Z" fill="#d55e00" fill-opacity="0.55"/><path d="M36.266,347.023 C169.726,347.023 169.726,185.151 303.187,185.151 L303.187,165.664 C169.726,165.664 169.726,327.537 36.266,327.537 L36.266,347.023 Z" fill="#0072b2" fill-opacity="0.55"/><path d="M36.266,327.537 C169.726,327.537 169.726,165.664 303.187,165.664 L303.187,154.149 C169.726,154.149 169.726,316.022 36.266,316.022 L36.266,327.537 Z" fill="#d55e00" fill-opacity="0.55"/><path d="M36.266,307.718 C169.726,307.718 169.726,338.719 303.187,338.719 L303.187,259.001 C169.726,259.001 169.726,227.999 36.266,227.999 L36.266,307.718 Z" fill="#0072b2" fill-opacity="0.55"/><path d="M36.266,227.999 C169.726,227.999 169.726,259.001 303.187,259.001 L303.187,245.715 C169.726,245.715 169.726,214.713 36.266,214.713 L36.266,227.999 Z" fill="#d55e00" fill-opacity="0.55"/><path d="M36.266,214.713 C169.726,214.713 169.726,154.149 303.187,154.149 L303.187,137.32 C169.726,137.32 169.726,197.884 36.266,197.884 L36.266,214.713 Z" fill="#0072b2" fill-opacity="0.55"/><path d="M36.266,197.884 C169.726,197.884 169.726,137.32 303.187,137.32 L303.187,122.262 C169.726,122.262 169.726,182.826 36.266,182.826 L36.266,197.884 Z" fill="#d55e00" fill-opacity="0.55"/><path d="M36.266,174.522 C169.726,174.522 169.726,245.715 303.187,245.715 L303.187,203.198 C169.726,203.198 169.726,132.005 36.266,132.005 L36.266,174.522 Z" fill="#0072b2" fill-opacity="0.55"/><path d="M36.266,132.005 C169.726,132.005 169.726,203.198 303.187,203.198 L303.187,193.455 C169.726,193.455 169.726,122.262 36.266,122.262 L36.266,132.005 Z" fill="#d55e00" fill-opacity="0.55"/><path d="M36.266,122.262 C169.726,122.262 169.726,122.262 303.187,122.262 L303.187,76.202 C169.726,76.202 169.726,76.202 36.266,76.202 L36.266,122.262 Z" fill="#0072b2" fill-opacity="0.55"/><path d="M36.266,76.202 C169.726,76.202 169.726,76.202 303.187,76.202 L303.187,32.8 C169.726,32.8 169.726,32.8 36.266,32.8 L36.266,76.202 Z" fill="#d55e00" fill-opacity="0.55"/><path d="M327.453,439.696 C460.914,439.696 460.914,439.696 594.374,439.696 L594.374,224.456 C460.914,224.456 460.914,224.456 327.453,224.456 L327.453,439.696 Z" fill="#0072b2" fill-opacity="0.55"/><path d="M327.453,224.456 C460.914,224.456 460.914,133.777 594.374,133.777 L594.374,102.775 C460.914,102.775 460.914,193.455 327.453,193.455 L327.453,224.456 Z" fill="#d55e00" fill-opacity="0.55"/><path d="M327.453,185.151 C460.914,185.151 460.914,224.456 594.374,224.456 L594.374,142.081 C460.914,142.081 460.914,102.775 327.453,102.775 L327.453,185.151 Z" fill="#0072b2" fill-opacity="0.55"/><path d="M327.453,102.775 C460.914,102.775 460.914,102.775 594.374,102.775 L594.374,32.8 C460.914,32.8 460.914,32.8 327.453,32.8 L327.453,102.775 Z" fill="#d55e00" fill-opacity="0.55"/><path d="M12,448 L36.266,448 L36.266,316.022 L12,316.022 Z M12,307.718 L36.266,307.718 L36.266,182.826 L12,182.826 Z M12,174.522 L36.266,174.522 L36.266,32.8 L12,32.8 Z M303.187,439.696 L327.453,439.696 L327.453,193.455 L303.187,193.455 Z M303.187,185.151 L327.453,185.151 L327.453,32.8 L303.187,32.8 Z M594.374,439.696 L618.64,439.696 L618.64,142.081 L594.374,142.081 Z M594.374,133.777 L618.64,133.777 L618.64,32.8 L594.374,32.8 Z" fill="#333333" fill-opacity="0.55"/></g><path d="M632.64,225.85 L644.64,225.85 L644.64,237.85 L632.64,237.85 Z" fill="#0072b2"/><text x="650.64" y="231.85" font-family="sans-serif" font-size="12" dominant-baseline="central" fill="#333333">solved</text><path d="M632.64,242.95 L644.64,242.95 L644.64,254.95 L632.64,254.95 Z" fill="#d55e00"/><text x="650.64" y="248.95" font-family="sans-serif" font-size="12" dominant-baseline="central" fill="#333333">escalated</text></svg>